<?xml version="1.0" encoding="UTF-8" standalone="no"?>
<!-- Created with Inkscape (http://www.inkscape.org/) -->

<svg
   xmlns:dc="http://purl.org/dc/elements/1.1/"
   xmlns:cc="http://creativecommons.org/ns#"
   xmlns:rdf="http://www.w3.org/1999/02/22-rdf-syntax-ns#"
   xmlns:svg="http://www.w3.org/2000/svg"
   xmlns="http://www.w3.org/2000/svg"
   xmlns:sodipodi="http://sodipodi.sourceforge.net/DTD/sodipodi-0.dtd"
   xmlns:inkscape="http://www.inkscape.org/namespaces/inkscape"
   width="128"
   height="128"
   id="svg2"
   version="1.1"
   inkscape:version="0.48.4 r9939"
   sodipodi:docname="Neues Dokument 1">
  <defs
     id="defs4" />
  <sodipodi:namedview
     id="base"
     pagecolor="#ffffff"
     bordercolor="#666666"
     borderopacity="1.0"
     inkscape:pageopacity="0.0"
     inkscape:pageshadow="2"
     inkscape:zoom="1.4"
     inkscape:cx="81.720724"
     inkscape:cy="212.9659"
     inkscape:document-units="px"
     inkscape:current-layer="layer1"
     showgrid="false"
     inkscape:window-width="1920"
     inkscape:window-height="976"
     inkscape:window-x="-8"
     inkscape:window-y="-8"
     inkscape:window-maximized="1" />
  <metadata
     id="metadata7">
    <rdf:RDF>
      <cc:Work
         rdf:about="">
        <dc:format>image/svg+xml</dc:format>
        <dc:type
           rdf:resource="http://purl.org/dc/dcmitype/StillImage" />
        <dc:title></dc:title>
      </cc:Work>
    </rdf:RDF>
  </metadata>
  <g
     inkscape:label="Ebene 1"
     inkscape:groupmode="layer"
     id="layer1"
     transform="translate(0,-924.36218)">
    <g
       id="g3824"
       transform="matrix(0.83163129,0,0,0.83163129,-89.519018,900.56582)">
      <path
         sodipodi:nodetypes="cccccccccc"
         inkscape:connector-curvature="0"
         id="path2996"
         d="m 176.0625,44.0625 c -26.51741,-0.382417 -52.13254,17.85187 -59.89949,43.321935 -7.55415,22.758335 0.38937,49.372305 18.8526,64.599025 17.49782,15.27126 43.66318,19.38698 65.04689,10.39154 -5.65625,-7.40625 -11.3125,-14.8125 -16.96875,-22.21875 -16.54581,3.64352 -34.82558,-6.23963 -40.37708,-22.34013 -6.05507,-15.64045 0.837,-34.963404 15.67562,-42.927012 8.18508,-4.659767 18.23468,-5.835473 27.29521,-3.295358 5.58333,-7.260417 11.16667,-14.520833 16.75,-21.78125 -8.24059,-3.793124 -17.30425,-5.761589 -26.375,-5.75 z"
         style="font-size:medium;font-style:normal;font-variant:normal;font-weight:normal;font-stretch:normal;text-indent:0;text-align:start;text-decoration:none;line-height:normal;letter-spacing:normal;word-spacing:normal;text-transform:none;direction:ltr;block-progression:tb;writing-mode:lr-tb;text-anchor:start;baseline-shift:baseline;opacity:0.58249159;color:#000000;fill:#70d2fe;fill-opacity:1;stroke:none;stroke-width:26.82336807;marker:none;visibility:visible;display:inline;overflow:visible;enable-background:accumulate;font-family:Sans;-inkscape-font-specification:Sans" />
      <path
         inkscape:connector-curvature="0"
         id="path3802"
         d="M 216.125,58.3125 199.53125,79 c 7.38351,6.418983 12.0625,15.852759 12.0625,26.5625 0,11.93031 -5.79624,22.30279 -14.6875,28.65625 l 16,21.0625 c 15.69506,-11.24536 25.90625,-29.428 25.90625,-49.71875 0,-3.95705 -0.41436,-7.832938 -1.15625,-11.59375 4.82761,-5.018701 11.13715,-8.615611 18.21875,-10.1875 L 255.46875,58.5 c -10.53955,1.423262 -20.21531,5.489687 -28.375,11.4375 -3.14465,-4.311267 -6.8227,-8.232165 -10.96875,-11.625 z"
         style="fill:#1b8ecd;fill-opacity:1;stroke:none" />
    </g>
  </g>
</svg>
